<?xml version="1.0" encoding="utf-8"?>
<!-- Generator: Adobe Illustrator 19.1.0, SVG Export Plug-In . SVG Version: 6.00 Build 0)  -->
<svg version="1.1" id="Layer_1" xmlns="http://www.w3.org/2000/svg" xmlns:xlink="http://www.w3.org/1999/xlink" x="0px" y="0px"
	 viewBox="0 0 64 64" enable-background="new 0 0 64 64" xml:space="preserve">
<g>
	
		<path fill="#8CAEDC" stroke="#4766B0" stroke-width="3" stroke-linecap="round" stroke-linejoin="round" stroke-miterlimit="10" d="
		M50.195,26.098C49.284,16.861,41.471,9.621,32,9.621s-17.284,7.24-18.195,16.477C6.84,27.001,1.442,32.971,1.442,40.18
		c0,7.829,6.37,14.199,14.2,14.199h32.716c7.83,0,14.2-6.37,14.2-14.199C62.558,32.971,57.16,27.001,50.195,26.098z"/>
	<g>
		<path fill="none" stroke="#4766B0" stroke-width="3" stroke-linecap="round" stroke-linejoin="round" stroke-miterlimit="10" d="
			M40.381,25.146c-2.102-4.39-7.364-6.244-11.754-4.142s-6.244,7.364-4.142,11.754"/>
		
			<path fill="#5981C1" stroke="#4766B0" stroke-width="3" stroke-linecap="round" stroke-linejoin="round" stroke-miterlimit="10" d="
			M39.102,47.929H24.896c-1.762,0-3.19-1.428-3.19-3.19V34.077c0-1.762,1.428-3.19,3.19-3.19h14.206c1.762,0,3.19,1.428,3.19,3.19
			V44.74C42.292,46.501,40.864,47.929,39.102,47.929z"/>
		<g>
			<g>
				<g>
					<g>
						<g>
							<g>
								<path fill="#4766B0" d="M34.342,38.237c0-1.294-1.049-2.344-2.343-2.344c-1.294,0-2.344,1.05-2.344,2.344
									c0,0.746,0.355,1.403,0.899,1.832l-0.429,4.074c-0.009,0.087,0.02,0.175,0.078,0.241c0.06,0.066,0.144,0.104,0.233,0.104
									h3.126c0.005,0.001,0.01,0,0.012,0c0.172,0,0.313-0.14,0.313-0.313c0-0.042-0.008-0.082-0.023-0.118l-0.42-3.988
									C33.987,39.641,34.342,38.983,34.342,38.237z"/>
							</g>
						</g>
					</g>
				</g>
			</g>
		</g>
	</g>
</g>
</svg>
