<svg xmlns="http://www.w3.org/2000/svg" viewBox="0 0 91.49 114.73"><defs><style>.cls-1{fill:#d64f2a;}.cls-2{fill:#fff;}</style></defs><g id="Layer_2" data-name="Layer 2"><g id="content"><path class="cls-1" d="M56.21,20V0H7.65A7.67,7.67,0,0,0,0,7.65v99.44a7.67,7.67,0,0,0,7.65,7.64H83.84a7.67,7.67,0,0,0,7.65-7.64V31.45H67.68A11.49,11.49,0,0,1,56.21,20Z"/><path class="cls-1" d="M67.68,27.63H91.49L60,0V20A7.67,7.67,0,0,0,67.68,27.63Z"/><rect class="cls-2" x="5.61" y="40.44" width="80.26" height="68.57" rx="5"/><path class="cls-2" d="M18.3,20.94a7.42,7.42,0,0,1-2.9.48c-3.92,0-5.93-2.43-5.93-5.66,0-3.86,2.75-6,6.18-6a6.8,6.8,0,0,1,2.79.5l-.52,2a5.71,5.71,0,0,0-2.15-.42,3.41,3.41,0,0,0-3.62,3.75,3.39,3.39,0,0,0,3.63,3.7,6.47,6.47,0,0,0,2.14-.37Z"/><path class="cls-2" d="M20.07,18.62a6.52,6.52,0,0,0,2.84.7c1.17,0,1.79-.49,1.79-1.22s-.53-1.11-1.9-1.6c-1.88-.66-3.1-1.7-3.1-3.34,0-1.93,1.61-3.41,4.28-3.41a7,7,0,0,1,2.89.57l-.57,2.06a5.55,5.55,0,0,0-2.37-.53c-1.11,0-1.65.5-1.65,1.09s.64,1,2.1,1.59c2,.74,2.94,1.79,2.94,3.38,0,1.9-1.46,3.51-4.57,3.51a7.33,7.33,0,0,1-3.21-.69Z"/><path class="cls-2" d="M29.14,18.62a6.55,6.55,0,0,0,2.84.7c1.17,0,1.79-.49,1.79-1.22s-.53-1.11-1.89-1.6c-1.89-.66-3.11-1.7-3.11-3.34,0-1.93,1.61-3.41,4.28-3.41a7,7,0,0,1,2.89.57l-.57,2.06A5.51,5.51,0,0,0,33,11.85c-1.11,0-1.65.5-1.65,1.09s.64,1,2.1,1.59c2,.74,2.94,1.79,2.94,3.38,0,1.9-1.46,3.51-4.56,3.51a7.26,7.26,0,0,1-3.21-.69Z"/><path class="cls-1" d="M31.83,75a3.6,3.6,0,0,1,3.68-3.81A3.79,3.79,0,1,1,31.83,75Z"/><path class="cls-1" d="M42.47,75a3.6,3.6,0,0,1,3.68-3.81A3.79,3.79,0,1,1,42.47,75Z"/><path class="cls-1" d="M53.11,75a3.6,3.6,0,0,1,3.68-3.81A3.79,3.79,0,1,1,53.11,75Z"/><path class="cls-1" d="M75.76,77.47c-3.32.1-3.71,2-3.71,3.32a34.12,34.12,0,0,0,.29,3.8,35.16,35.16,0,0,1,.29,3.86c0,4.88-3,6.63-7.41,6.63H63.46V91h.88c2.24,0,3-1.37,3-3.52a18.33,18.33,0,0,0-.25-2.73,33.55,33.55,0,0,1-.24-3.42c0-3.71,1.46-5.12,4.19-5.71v-.09c-2.73-.59-4.24-2-4.19-5.66a31.29,31.29,0,0,1,.24-3.32,19.21,19.21,0,0,0,.25-2.78c0-2.15-.79-3.42-3-3.47h-.88V56.14h1.71c4.58,0,7.46,2,7.46,6.59a35.16,35.16,0,0,1-.29,3.86,33.94,33.94,0,0,0-.29,3.8c0,1.47.39,3.22,3.71,3.32Z"/><path class="cls-1" d="M15.76,73.71c3.32-.1,3.71-1.85,3.71-3.32a33.94,33.94,0,0,0-.29-3.8,35.16,35.16,0,0,1-.29-3.86c0-4.59,2.88-6.59,7.46-6.59h1.71v4.15h-.88c-2.19.05-3,1.32-3,3.47a19.11,19.11,0,0,0,.24,2.78,31.29,31.29,0,0,1,.24,3.32c0,3.7-1.46,5.07-4.19,5.66v.09c2.73.59,4.24,2,4.19,5.71a33.55,33.55,0,0,1-.24,3.42,18.25,18.25,0,0,0-.24,2.73c0,2.15.73,3.47,3,3.52h.88v4.09H26.3c-4.39,0-7.41-1.75-7.41-6.63a35.16,35.16,0,0,1,.29-3.86,34.12,34.12,0,0,0,.29-3.8c0-1.37-.39-3.22-3.71-3.32Z"/></g></g></svg>