<svg xmlns="http://www.w3.org/2000/svg" viewBox="0 0 91.49 114.73"><defs><style>.cls-1{fill:#facc17;}.cls-2{fill:#fff;}</style></defs><g id="Layer_2" data-name="Layer 2"><g id="content"><path class="cls-1" d="M56.21,20V0H7.65A7.67,7.67,0,0,0,0,7.65v99.44a7.67,7.67,0,0,0,7.65,7.64H83.84a7.67,7.67,0,0,0,7.65-7.64V31.45H67.68A11.48,11.48,0,0,1,56.21,20Z"/><path class="cls-1" d="M67.68,27.63H91.49L60,0V20A7.67,7.67,0,0,0,67.68,27.63Z"/><rect class="cls-2" x="5.61" y="40.44" width="80.26" height="68.57" rx="5"/><path class="cls-2" d="M18.3,20.94a7.42,7.42,0,0,1-2.9.48c-3.92,0-5.93-2.43-5.93-5.66,0-3.86,2.75-6,6.18-6a6.8,6.8,0,0,1,2.79.5l-.52,2a5.71,5.71,0,0,0-2.15-.42,3.41,3.41,0,0,0-3.62,3.75,3.39,3.39,0,0,0,3.63,3.7,6.47,6.47,0,0,0,2.14-.37Z"/><path class="cls-2" d="M20.07,18.62a6.52,6.52,0,0,0,2.84.7c1.17,0,1.79-.48,1.79-1.22s-.53-1.11-1.9-1.6c-1.88-.65-3.1-1.7-3.1-3.34,0-1.93,1.61-3.41,4.28-3.41a7,7,0,0,1,2.89.57l-.57,2.06a5.51,5.51,0,0,0-2.37-.53c-1.11,0-1.65.5-1.65,1.09s.64,1,2.1,1.59c2,.74,2.94,1.79,2.94,3.38,0,1.9-1.46,3.51-4.57,3.51a7.25,7.25,0,0,1-3.2-.69Z"/><path class="cls-2" d="M31.72,21.25,28.1,9.93h2.8l1.38,4.79c.39,1.34.74,2.64,1,4h.05c.28-1.36.64-2.71,1-4l1.45-4.84h2.72L34.72,21.25Z"/><rect class="cls-1" x="33.32" y="77.79" width="13.05" height="5.68"/><rect class="cls-1" x="65.43" y="60.43" width="12.82" height="5.68"/><rect class="cls-1" x="33.32" y="86.48" width="13.05" height="5.68"/><rect class="cls-1" x="33.32" y="69.11" width="13.05" height="5.68"/><rect class="cls-1" x="33.32" y="48.69" width="44.92" height="8.74"/><rect class="cls-1" x="65.43" y="77.79" width="12.82" height="5.68"/><rect class="cls-1" x="65.43" y="69.11" width="12.82" height="5.68"/><rect class="cls-1" x="33.32" y="60.43" width="13.05" height="5.68"/><rect class="cls-1" x="65.43" y="86.48" width="12.82" height="5.68"/><rect class="cls-1" x="13.24" y="60.43" width="17.08" height="40.32"/><rect class="cls-1" x="49.38" y="60.43" width="13.05" height="5.68"/><rect class="cls-1" x="13.24" y="48.69" width="17.08" height="8.74"/><rect class="cls-1" x="65.43" y="95.16" width="12.82" height="5.59"/><rect class="cls-1" x="49.38" y="95.16" width="13.05" height="5.59"/><rect class="cls-1" x="49.38" y="86.48" width="13.05" height="5.68"/><rect class="cls-1" x="49.38" y="77.79" width="13.05" height="5.68"/><rect class="cls-1" x="49.38" y="69.11" width="13.05" height="5.68"/><rect class="cls-1" x="33.32" y="95.16" width="13.05" height="5.59"/></g></g></svg>