<svg xmlns="http://www.w3.org/2000/svg" viewBox="0 0 91.49 114.73"><defs><style>.cls-1{fill:#4d4e4e;}.cls-2{fill:#fff;}</style></defs><g id="Layer_2" data-name="Layer 2"><g id="content"><path class="cls-1" d="M56.21,20V0H7.65A7.67,7.67,0,0,0,0,7.65v99.44a7.67,7.67,0,0,0,7.65,7.64H83.84a7.67,7.67,0,0,0,7.65-7.64V31.45H67.68A11.48,11.48,0,0,1,56.21,20Z"/><path class="cls-1" d="M67.68,27.63H91.49L60,0V20A7.67,7.67,0,0,0,67.68,27.63Z"/><rect class="cls-2" x="5.61" y="40.44" width="80.26" height="68.57" rx="5"/><path class="cls-1" d="M36.22,71.37l1.19,4.87a1.67,1.67,0,0,0,2,1.23l4.36-1.07a13.86,13.86,0,0,0,2.39,2.94l-1.92,4a1.67,1.67,0,0,0,.79,2.23l4.53,2.15A1.65,1.65,0,0,0,51.8,87l1.93-4a14.27,14.27,0,0,0,3,.08c.38,0,.75-.07,1.11-.13l2,4a1.67,1.67,0,0,0,2.25.74l4.48-2.26a1.67,1.67,0,0,0,.74-2.24l-2-4a14.33,14.33,0,0,0,2.31-3l4.37,1a1.68,1.68,0,0,0,2-1.27L75.09,71a1.68,1.68,0,0,0-1.27-2l-4.37-1a13.86,13.86,0,0,0-1-4L72,61.18a1.67,1.67,0,0,0,.23-2.36L69,55a1.67,1.67,0,0,0-2.35-.23L63.2,57.56a14.63,14.63,0,0,0-3.49-1.63l0-4.48A1.69,1.69,0,0,0,58,49.79l-5,.05a1.67,1.67,0,0,0-1.66,1.68l0,4.47a13.68,13.68,0,0,0-3.57,1.77L44.25,55a1.71,1.71,0,0,0-1.55-.27,1.75,1.75,0,0,0-.8.56l-3.09,4a1.69,1.69,0,0,0,.29,2.35l3.53,2.75a13.91,13.91,0,0,0-.84,3.93l-4.34,1.06A1.68,1.68,0,0,0,36.22,71.37Zm13-1.67a6.48,6.48,0,1,1,7,6A6.48,6.48,0,0,1,49.17,69.7Z"/><path class="cls-1" d="M17.39,91.57l.79,3.23a1.12,1.12,0,0,0,1.34.82l2.89-.71a9.36,9.36,0,0,0,1.59,2l-1.28,2.68a1.11,1.11,0,0,0,.53,1.48l3,1.43a1.11,1.11,0,0,0,1.48-.53L29,99.24a9.41,9.41,0,0,0,2,.06c.25,0,.5,0,.74-.09l1.34,2.65a1.12,1.12,0,0,0,1.49.5l3-1.5A1.12,1.12,0,0,0,38,99.37L36.7,96.71a9.4,9.4,0,0,0,1.53-2l2.9.65a1.11,1.11,0,0,0,1.33-.84l.72-3.24A1.11,1.11,0,0,0,42.34,90l-2.9-.65a9.32,9.32,0,0,0-.62-2.65l2.29-1.89a1.1,1.1,0,0,0,.15-1.56l-2.11-2.57a1.12,1.12,0,0,0-1.57-.15l-2.29,1.89A9.23,9.23,0,0,0,33,81.32l0-3a1.12,1.12,0,0,0-1.12-1.1l-3.33,0a1.11,1.11,0,0,0-1.1,1.12l0,3a8.88,8.88,0,0,0-2.37,1.17l-2.34-1.83a1.1,1.1,0,0,0-1-.18,1.07,1.07,0,0,0-.53.37l-2.05,2.63a1.1,1.1,0,0,0,.19,1.55l2.35,1.83a9.14,9.14,0,0,0-.56,2.61l-2.89.71A1.1,1.1,0,0,0,17.39,91.57ZM26,90.46a4.3,4.3,0,1,1,4.63,4A4.31,4.31,0,0,1,26,90.46Z"/><path class="cls-2" d="M10,10.08a23,23,0,0,1,3.46-.23,7.22,7.22,0,0,1,4.63,1.21A5,5,0,0,1,20,15.32a5.75,5.75,0,0,1-1.88,4.59,8.14,8.14,0,0,1-5.23,1.46A21.07,21.07,0,0,1,10,21.2Zm2.57,9.24a4.75,4.75,0,0,0,.89.05c2.32,0,3.83-1.26,3.83-4a3.25,3.25,0,0,0-3.56-3.6,5.4,5.4,0,0,0-1.16.1Z"/><path class="cls-2" d="M21.68,9.93h2.57V19.1h4.5v2.15H21.68Z"/><path class="cls-2" d="M30.26,9.93h2.57V19.1h4.51v2.15H30.26Z"/></g></g></svg>