<svg xmlns="http://www.w3.org/2000/svg" viewBox="0 0 91.49 114.73"><defs><style>.cls-1{fill:#5a74b8;}.cls-2{fill:#fff;}</style></defs><g id="Layer_2" data-name="Layer 2"><g id="content"><path class="cls-1" d="M56.21,20V0H7.65A7.67,7.67,0,0,0,0,7.65v99.44a7.67,7.67,0,0,0,7.65,7.64H83.84a7.67,7.67,0,0,0,7.65-7.64V31.45H67.68A11.48,11.48,0,0,1,56.21,20Z"/><rect class="cls-2" x="5.61" y="40.44" width="80.26" height="68.57" rx="5"/><path class="cls-1" d="M67.68,27.63H91.49L60,0V20A7.67,7.67,0,0,0,67.68,27.63Z"/><path class="cls-2" d="M10,10.08a23,23,0,0,1,3.46-.23,7.22,7.22,0,0,1,4.63,1.21A5,5,0,0,1,20,15.32a5.75,5.75,0,0,1-1.88,4.59,8.14,8.14,0,0,1-5.23,1.46A21.07,21.07,0,0,1,10,21.2Zm2.57,9.24a4.75,4.75,0,0,0,.89.05c2.32,0,3.83-1.26,3.83-4a3.25,3.25,0,0,0-3.56-3.6,5.4,5.4,0,0,0-1.16.1Z"/><path class="cls-2" d="M32,15.48c0,3.71-2.25,6-5.56,6s-5.32-2.54-5.32-5.76c0-3.4,2.17-5.93,5.51-5.93S32,12.35,32,15.48Zm-8.18.15c0,2.21,1,3.78,2.76,3.78s2.72-1.65,2.72-3.85c0-2-1-3.78-2.74-3.78S23.86,13.43,23.86,15.63Z"/><path class="cls-2" d="M42,20.94a7.44,7.44,0,0,1-2.91.48c-3.91,0-5.93-2.43-5.93-5.66,0-3.86,2.76-6,6.19-6a6.74,6.74,0,0,1,2.78.5l-.52,2a5.67,5.67,0,0,0-2.15-.42,3.41,3.41,0,0,0-3.61,3.75,3.39,3.39,0,0,0,3.63,3.7,6.41,6.41,0,0,0,2.13-.37Z"/><rect class="cls-1" x="13.24" y="48.69" width="65" height="3"/><rect class="cls-1" x="13.24" y="60.95" width="65" height="3"/><rect class="cls-1" x="13.24" y="73.22" width="65" height="3"/><rect class="cls-1" x="13.24" y="85.49" width="35" height="3"/><rect class="cls-1" x="13.24" y="97.75" width="35" height="3"/><path class="cls-1" d="M59.56,100.56l-4.3-18.12h4.38L61,89.92c.4,2.15.78,4.49,1.07,6.31h.06c.29-2,.72-4.14,1.18-6.37l1.53-7.42h4.36l1.45,7.64c.4,2.12.7,4.06,1,6.07h.05c.27-2,.68-4.14,1-6.29l1.48-7.42h4.17L73.7,100.56H69.26l-1.53-7.79c-.35-1.83-.64-3.53-.86-5.6h-.05c-.33,2-.62,3.77-1,5.6l-1.72,7.79Z"/></g></g></svg>