<svg xmlns="http://www.w3.org/2000/svg" viewBox="0 0 91.49 114.73"><defs><style>.cls-1{fill:#d64f2a;}.cls-2{fill:#fff;}</style></defs><g id="Layer_2" data-name="Layer 2"><g id="content"><path class="cls-1" d="M56.21,20V0H7.65A7.67,7.67,0,0,0,0,7.65v99.44a7.67,7.67,0,0,0,7.65,7.64H83.84a7.67,7.67,0,0,0,7.65-7.64V31.45H67.68A11.48,11.48,0,0,1,56.21,20Z"/><path class="cls-1" d="M67.68,27.63H91.49L60,0V20A7.67,7.67,0,0,0,67.68,27.63Z"/><rect class="cls-2" x="5.61" y="40.44" width="80.26" height="68.57" rx="5"/><path class="cls-2" d="M16.72,16.47H12.56v2.68h4.65v2.1H10V9.93h7V12H12.56v2.35h4.16Z"/><path class="cls-2" d="M28.53,16.92c-.05-1.36-.1-3-.1-4.65h-.05c-.35,1.44-.82,3.05-1.26,4.38l-1.37,4.42h-2l-1.21-4.39c-.37-1.32-.76-2.93-1-4.41h0c-.07,1.53-.12,3.27-.2,4.68l-.2,4.3H18.71l.72-11.32h3.41L24,13.71c.35,1.31.7,2.72,1,4.05H25c.32-1.31.7-2.81,1.07-4.07l1.21-3.76h3.34l.63,11.32H28.7Z"/><path class="cls-2" d="M33.17,9.93h2.57V19.1h4.5v2.15H33.17Z"/><polygon class="cls-1" points="72.72 56.48 45.41 81.68 18.1 56.48 72.72 56.48"/><polygon class="cls-1" points="75.09 60.76 58.21 76.34 75.09 91.91 75.09 60.76"/><polygon class="cls-1" points="15.73 60.76 32.61 76.34 15.73 91.91 15.73 60.76"/><polygon class="cls-1" points="48.5 85.03 45.41 87.87 42.33 85.03 35.74 78.95 18.1 95.22 72.72 95.22 55.08 78.95 48.5 85.03"/></g></g></svg>