<svg xmlns="http://www.w3.org/2000/svg" viewBox="0 0 91.49 114.74"><defs><style>.cls-1{fill:#f8981d;}.cls-2{fill:#fff;}</style></defs><g id="Layer_2" data-name="Layer 2"><g id="content"><path class="cls-1" d="M56.21,20V0H7.65A7.67,7.67,0,0,0,0,7.65v99.44a7.68,7.68,0,0,0,7.65,7.65H83.84a7.68,7.68,0,0,0,7.65-7.65V31.45H67.68A11.48,11.48,0,0,1,56.21,20Z"/><path class="cls-1" d="M67.68,27.63H91.49L60,0V20A7.67,7.67,0,0,0,67.68,27.63Z"/><rect class="cls-2" x="5.61" y="40.44" width="80.26" height="68.57" rx="5"/><path class="cls-2" d="M16.72,16.47H12.56v2.68h4.65v2.1H10V9.93h7V12H12.56v2.35h4.16Z"/><path class="cls-2" d="M19,10.08a21.61,21.61,0,0,1,3.46-.23,5.47,5.47,0,0,1,3.46.9,3.35,3.35,0,0,1,1.21,2.63,3.62,3.62,0,0,1-1,2.68,5.24,5.24,0,0,1-3.68,1.2,7.23,7.23,0,0,1-.88-.05v4H19Zm2.53,5.14a4,4,0,0,0,.86.07c1.36,0,2.2-.69,2.2-1.85s-.72-1.66-2-1.66a4.45,4.45,0,0,0-1.06.1Z"/><path class="cls-2" d="M28.8,18.62a6.59,6.59,0,0,0,2.84.7c1.18,0,1.8-.49,1.8-1.22s-.54-1.11-1.9-1.6c-1.88-.66-3.11-1.7-3.11-3.34,0-1.94,1.61-3.41,4.29-3.41a6.79,6.79,0,0,1,2.88.57L35,12.38a5.5,5.5,0,0,0-2.36-.53c-1.11,0-1.65.5-1.65,1.09s.64,1,2.1,1.59c2,.74,2.94,1.79,2.94,3.38,0,1.9-1.46,3.51-4.57,3.51a7.33,7.33,0,0,1-3.21-.69Z"/><path class="cls-1" d="M58,96.4l-3-2.7A20,20,0,0,0,26.82,65.45l-2.7-3A24,24,0,0,1,58,96.4Z"/><rect class="cls-1" x="55.57" y="41.98" width="2" height="43.95" transform="translate(-28.65 58.73) rotate(-45)"/><path class="cls-1" d="M54.88,102.62a5.92,5.92,0,1,1,4.19-1.73A5.89,5.89,0,0,1,54.88,102.62Zm0-7.86a1.9,1.9,0,0,0-1.37.57,1.93,1.93,0,0,0-.57,1.36,2,2,0,0,0,.57,1.37,2,2,0,0,0,2.73,0,1.91,1.91,0,0,0,.57-1.37,1.95,1.95,0,0,0-1.93-1.93Z"/><circle class="cls-1" cx="55.97" cy="64.55" r="3.93"/><path class="cls-1" d="M42.71,50.09a2,2,0,1,1,0-2.86A2,2,0,0,1,42.71,50.09Z"/><path class="cls-1" d="M73.39,80.78a2,2,0,1,1,0-2.86A2,2,0,0,1,73.39,80.78Z"/><path class="cls-1" d="M23.77,71.52A5.94,5.94,0,1,1,28,69.78,5.9,5.9,0,0,1,23.77,71.52Zm0-7.87A1.94,1.94,0,0,0,22.4,67a2,2,0,0,0,2.73,0,1.94,1.94,0,0,0-1.36-3.3Z"/></g></g></svg>