<svg xmlns="http://www.w3.org/2000/svg" viewBox="0 0 91.49 114.74"><defs><style>.cls-1{fill:#d64f2a;}.cls-2{fill:#fff;}</style></defs><g id="Layer_2" data-name="Layer 2"><g id="content"><path class="cls-1" d="M56.21,20V0H7.65A7.67,7.67,0,0,0,0,7.65v99.44a7.68,7.68,0,0,0,7.65,7.65H83.84a7.68,7.68,0,0,0,7.65-7.65V31.45H67.68A11.49,11.49,0,0,1,56.21,20Z"/><path class="cls-1" d="M67.68,27.63H91.49L60,0V20A7.67,7.67,0,0,0,67.68,27.63Z"/><rect class="cls-2" x="5.61" y="40.44" width="80.26" height="68.57" rx="5"/><path class="cls-2" d="M16.72,16.47H12.56v2.68h4.65v2.1H10V9.93h7V12H12.56v2.35h4.16Z"/><path class="cls-2" d="M24.92,21.25l-1-2.05c-.42-.78-.69-1.37-1-2h0c-.24.66-.53,1.25-.88,2L21,21.25H18.12l3.27-5.72-3.15-5.6h2.94l1,2.07c.33.69.58,1.24.85,1.88h0c.27-.72.48-1.23.77-1.88l1-2.07h2.92l-3.19,5.53,3.36,5.79Z"/><path class="cls-2" d="M36,16.47H31.83v2.68h4.65v2.1H29.26V9.93h7V12H31.83v2.35H36Z"/><path class="cls-1" d="M30.65,79.49H24.08V57.43H58.74v5.44h5.34V57.43a5.35,5.35,0,0,0-5.34-5.34H24.08a5.34,5.34,0,0,0-5.33,5.34V84a5.34,5.34,0,0,0,5.33,5.34h6.57Z"/><path class="cls-1" d="M67.41,97.35H32.75A5.35,5.35,0,0,1,27.41,92V65.43a5.34,5.34,0,0,1,5.34-5.34H67.41a5.34,5.34,0,0,1,5.33,5.34V92A5.34,5.34,0,0,1,67.41,97.35Zm0-5.34v0ZM32.75,65.43V92H67.4V65.43Z"/><rect class="cls-1" x="31.31" y="87.49" width="37.27" height="5.64"/></g></g></svg>