<svg xmlns="http://www.w3.org/2000/svg" viewBox="0 0 91.49 114.74"><defs><style>.cls-1{fill:#87c540;}.cls-2{fill:#fff;}</style></defs><g id="Layer_2" data-name="Layer 2"><g id="content"><path class="cls-1" d="M56.21,20V0H7.65A7.67,7.67,0,0,0,0,7.65v99.44a7.68,7.68,0,0,0,7.65,7.65H83.84a7.68,7.68,0,0,0,7.65-7.65V31.45H67.68A11.48,11.48,0,0,1,56.21,20Z"/><path class="cls-1" d="M67.68,27.63H91.49L60,0V20A7.67,7.67,0,0,0,67.68,27.63Z"/><rect class="cls-2" x="5.61" y="40.44" width="80.26" height="68.57" rx="5"/><path class="cls-2" d="M19.45,20.73a12.66,12.66,0,0,1-3.78.64,6.31,6.31,0,0,1-4.61-1.53,5.45,5.45,0,0,1-1.59-4.11c0-3.77,2.75-5.92,6.46-5.92a7.79,7.79,0,0,1,3.15.56l-.54,2.05a6.27,6.27,0,0,0-2.64-.49,3.43,3.43,0,0,0-3.75,3.66,3.41,3.41,0,0,0,3.57,3.72A3.5,3.5,0,0,0,17,19.14V16.77H15.23v-2h4.22Z"/><path class="cls-2" d="M24,9.93V21.25H21.44V9.93Z"/><path class="cls-2" d="M26.23,9.93h6.92V12H28.8v2.59h4.07V16.7H28.8v4.55H26.23Z"/><circle class="cls-1" cx="31.87" cy="88.5" r="11.21"/><rect class="cls-1" x="48.09" y="77.3" width="22.39" height="22.39"/><polygon class="cls-1" points="28.32 73.76 45.57 46.94 62.81 73.76 28.32 73.76"/></g></g></svg>