<svg xmlns="http://www.w3.org/2000/svg" viewBox="0 0 91.49 114.73"><defs><style>.cls-1,.cls-3{fill:#5a74b8;}.cls-2{fill:#fff;}.cls-3{fill-rule:evenodd;}</style></defs><g id="Layer_2" data-name="Layer 2"><g id="content"><path class="cls-1" d="M56.21,20V0H7.65A7.67,7.67,0,0,0,0,7.65v99.44a7.67,7.67,0,0,0,7.65,7.64H83.84a7.67,7.67,0,0,0,7.65-7.64V31.45H67.68A11.48,11.48,0,0,1,56.21,20Z"/><path class="cls-1" d="M67.68,27.63H91.49L60,0V20A7.67,7.67,0,0,0,67.68,27.63Z"/><rect class="cls-2" x="5.61" y="40.44" width="80.26" height="68.57" rx="5"/><path class="cls-2" d="M12.56,9.93v4.35h4.21V9.93h2.56V21.25H16.77V16.52H12.56v4.73H10V9.93Z"/><path class="cls-2" d="M23.75,12.08H20.7V9.93h8.71v2.15H26.32v9.17H23.75Z"/><path class="cls-2" d="M40.28,16.92c-.05-1.36-.1-3-.1-4.65h-.06c-.35,1.44-.82,3.05-1.26,4.38l-1.37,4.42h-2l-1.21-4.39c-.37-1.32-.76-2.93-1-4.41h0c-.07,1.53-.12,3.27-.2,4.68l-.2,4.3H30.45l.72-11.32h3.41l1.11,3.78c.35,1.31.71,2.72,1,4.05h.05c.32-1.31.7-2.81,1.07-4.07L39,9.93h3.35L43,21.25H40.44Z"/><path class="cls-2" d="M44.91,9.93h2.57V19.1H52v2.15H44.91Z"/><path class="cls-1" d="M45.74,100.85A26.13,26.13,0,1,1,71.88,74.72,26.16,26.16,0,0,1,45.74,100.85Zm0-47.41A21.28,21.28,0,1,0,67,74.72,21.31,21.31,0,0,0,45.74,53.44Z"/><path class="cls-3" d="M36.34,55.77c.86-.7,1,.43,1.09.64.2,1.17.14,1.18,1.15,1.5.17-.69.15-1.63,1.28-1,.26-1-.7-1.29-1-2-.49.16-.78-.49-1.28-.33a1.73,1.73,0,0,1-1.08,0c-.72.33-.81.39-.94.46a1.94,1.94,0,0,1-.54,1.52C35.72,56.71,35.94,56.09,36.34,55.77Z"/><path class="cls-3" d="M36.24,94.29a.53.53,0,0,0,.1-.06c0-.57.25-1.06-.07-1.73-.78-1.69,2-1.9,1.56-3.56,1.38.1,1.18-1.51,2-2,.12-.45-.66-1.18.36-1.33.86-.12,1.26-.88,1.89-1.32,0-1-.27-2.1.46-2.92,1.11-1.23.41-2.4-.58-2.52-2.45-.29-3.27-2.71-5.21-3.67-.93-.46-1.73-1.15-2.81-1.1a2.68,2.68,0,0,1-1.15-.35c-.64.11-.94.67-1.35,1.07-.51.78.07,2-.89,2.56a2.71,2.71,0,0,0,0,2.66,10.28,10.28,0,0,0,2.59,3.61c.72.56.11,1.34.32,2,.7.77.27,1.71.29,2.54a13.57,13.57,0,0,0,1,5.33A12.79,12.79,0,0,0,36.24,94.29Z"/><path class="cls-1" d="M45.75,52.58a22.32,22.32,0,0,0-4.79.53l.17.16,0,0c-1.14.12-.23.62,0,.6,1.12-.12,1.12.58,1,1.38s-.66,1.76,0,2.64c.45.6,1,.45,1.4,0a10.53,10.53,0,0,1,2.26-1.49c.87-.51,2.12-.29,2.67-1.29A8.52,8.52,0,0,1,50.07,53,21.9,21.9,0,0,0,45.75,52.58Zm-4.46.54c.24-.2.59-.11.9-.13A2.05,2.05,0,0,0,41.29,53.12Z"/><path class="cls-1" d="M64.94,74c.23-.85,1.1-.45,1.5-.91.36-.25.77-.45,1.15-.68a19.25,19.25,0,0,0-.42-2.65c-.83-.14-.78-1.13-1.33-1.57-.08-.06,0-.33.18-.36.6-.08.38.71.8.82l.08,0h0a22,22,0,0,0-8.34-12,1.15,1.15,0,0,0-.08.28c-.12.67.3,1.13,1,1.44-.75-.19-1,.86-1.62.8.11.93-.6.58-1,.7a.45.45,0,0,1-.28.31c-1.07.51-1.14-1-1.92-1,.42,1.25-.48,1.41-1.28,1.65l-1-1.65c-.15-.67-.65-.19-1-.33-.22.72,1.2,1.15.31,2v.66c.28-.19.66-.08,1-.11-.38.06-.84,0-1.08.32.14.18.1.47.36.57.52-.06.68.28.57.68s-.58.5-1,.54c-1,.08-1.54.81-1,1.62s.83,1.12-.11,1.74c-.56.37-.16,1.68-1.32,1.63a5.73,5.73,0,0,0-.9,4.11,2.14,2.14,0,0,1-.07,1c1.22,1.86,2.57,3.08,5.06,2.2,1.57-.56,2.52.6,2.06,2.09a2.19,2.19,0,0,0,0,.51,3.45,3.45,0,0,1,.61,4.6c-.12.53.46.87.39,1.39a24,24,0,0,1,1.2,4.17.37.37,0,0,0,.39.38,3.64,3.64,0,0,0,3.78-2.32c0-.78,1.22-1.06.92-1.73a1.09,1.09,0,0,1,.6-1.46c1.11-.53,1.09-1.44,1-2.42-.25,0-.29-.21-.33-.45-.26-1.66.6-2.73,1.69-3.77,1.25-1.2,1.53-2,1.24-3A2.25,2.25,0,0,1,64.94,74Z"/><path class="cls-3" d="M66.45,81.68a5.36,5.36,0,0,0-1.92,3,1.65,1.65,0,0,0,.12,1,21.19,21.19,0,0,0,1.83-4Z"/><path class="cls-3" d="M48.61,57.26c.35-.22,1.08.4,1.11-.35s-.67-.32-1-.28-1.1-.45-1.13.3S48.26,57.1,48.61,57.26Z"/><path class="cls-3" d="M39.87,61.87c-.09-.33-.44-.58-.33-1-.09-.27.47-.49.19-.62-.87-.42-.75-1.36-1.15-2-.47,0-1.1.76-1.07.59.2-1.4-1.15-.67-1.47-1.26,0,.28-.25.38-.43.52.1,1.45-1.27,1.83-1.86,2.92-.4-.48,0-1.19-.72-1.39-.55-.16-1.5-.35-1.38-1.06s1-.85,1.55-1.19c.41-.24.84,0,1.24-.16a2.44,2.44,0,0,0,0-1.39l-.11,0A22,22,0,0,0,24,71.54c.83.48,1.49,1.46,2.66.91.39,1.12,2.27.4,2.29,2l1.61,1a3.67,3.67,0,0,1-1-3H28.36c.22-.67.74-1.13.56-2-.92.44-1.77,2.34-2.83.31l-.07.12c0-.08.05-.16.07-.27.43-2.08,1.16-2.73,3.27-2.81,1,0,1.25.85,1.52,1.63a.33.33,0,0,0,.33-.42,2.45,2.45,0,0,1,1.54-2.81,6.07,6.07,0,0,1,3-2.71c.5-1,1.85.38,2.2-.92-.22-.29-1,.3-.93-.64.1-.77.65-.3,1-.41a2.2,2.2,0,0,1,.63,0c.34,0,.34-.5.56-.67-.22.17-.21.69-.56.67l-.21.67c.51-.25.89.45,1.38.22C39.86,62.38,39.91,62,39.87,61.87Zm-14.75,8.9s0,0,0,0a.89.89,0,0,0,.49.4C25.48,71.22,25.31,71.06,25.12,70.77Z"/></g></g></svg>