<svg xmlns="http://www.w3.org/2000/svg" viewBox="0 0 91.49 114.73"><defs><style>.cls-1{fill:#87c540;}.cls-2{fill:#fff;}</style></defs><g id="Layer_2" data-name="Layer 2"><g id="content"><path class="cls-1" d="M56.21,20V0H7.65A7.67,7.67,0,0,0,0,7.65v99.44a7.67,7.67,0,0,0,7.65,7.64H83.84a7.67,7.67,0,0,0,7.65-7.64V31.45H67.68A11.48,11.48,0,0,1,56.21,20Z"/><path class="cls-1" d="M67.68,27.63H91.49L60,0V20A7.67,7.67,0,0,0,67.68,27.63Z"/><rect class="cls-2" x="5.61" y="40.44" width="80.26" height="68.57" rx="5"/><path class="cls-1" d="M44.39,66.93a5.88,5.88,0,1,1-5.88-5.87A5.87,5.87,0,0,1,44.39,66.93Z"/><path class="cls-1" d="M68.73,88.27,55.3,74.84a3.29,3.29,0,0,0-4.63,0l-9.5,9.5L37,80.13a3.27,3.27,0,0,0-4.63,0l-8.14,8.14c-1.27,1.27-.84,2.31,1,2.31H67.77C69.57,90.58,70,89.54,68.73,88.27Z"/><path class="cls-1" d="M73.16,99.68H18.33a6.55,6.55,0,0,1-6.54-6.55V56.31a6.55,6.55,0,0,1,6.54-6.55H73.16a6.56,6.56,0,0,1,6.54,6.55V93.13A6.56,6.56,0,0,1,73.16,99.68ZM16.87,55.33V94.11H74.62V55.33Z"/></g></g></svg>