<svg xmlns="http://www.w3.org/2000/svg" viewBox="0 0 91.49 114.73"><defs><style>.cls-1{fill:#87c540;}.cls-2{fill:#fff;}</style></defs><g id="Layer_2" data-name="Layer 2"><g id="content"><path class="cls-1" d="M56.21,20V0H7.65A7.67,7.67,0,0,0,0,7.65v99.44a7.67,7.67,0,0,0,7.65,7.64H83.84a7.67,7.67,0,0,0,7.65-7.64V31.45H67.68A11.48,11.48,0,0,1,56.21,20Z"/><path class="cls-1" d="M67.68,27.63H91.49L60,0V20A7.67,7.67,0,0,0,67.68,27.63Z"/><rect class="cls-2" x="5.61" y="40.44" width="80.26" height="68.57" rx="5"/><path class="cls-2" d="M12.2,9.93h2.56v7.16c0,3.22-1.55,4.35-4,4.35a6.65,6.65,0,0,1-1.87-.27l.29-2.07a4.08,4.08,0,0,0,1.31.21c1.07,0,1.74-.49,1.74-2.26Z"/><path class="cls-2" d="M16.89,10.08a21.61,21.61,0,0,1,3.46-.23,5.45,5.45,0,0,1,3.46.9A3.32,3.32,0,0,1,25,13.38a3.61,3.61,0,0,1-1,2.68,5.22,5.22,0,0,1-3.68,1.2,7,7,0,0,1-.87-.05v4H16.89Zm2.54,5.14a4,4,0,0,0,.86.07c1.36,0,2.2-.69,2.2-1.85s-.73-1.66-2-1.66a4.39,4.39,0,0,0-1.06.1Z"/><path class="cls-2" d="M36.11,20.73a12.6,12.6,0,0,1-3.78.64,6.29,6.29,0,0,1-4.6-1.53,5.46,5.46,0,0,1-1.6-4.11c0-3.77,2.76-5.92,6.47-5.92a7.74,7.74,0,0,1,3.14.56l-.54,2.05a6.21,6.21,0,0,0-2.63-.49,3.43,3.43,0,0,0-3.75,3.66,3.4,3.4,0,0,0,3.56,3.72,3.42,3.42,0,0,0,1.26-.17V16.77H31.89v-2h4.22Z"/><path class="cls-1" d="M44.39,66.93a5.88,5.88,0,1,1-5.88-5.87A5.87,5.87,0,0,1,44.39,66.93Z"/><path class="cls-1" d="M68.73,88.27,55.3,74.84a3.29,3.29,0,0,0-4.63,0l-9.5,9.5L37,80.13a3.27,3.27,0,0,0-4.63,0l-8.14,8.14c-1.27,1.27-.84,2.31,1,2.31H67.77C69.57,90.58,70,89.54,68.73,88.27Z"/><path class="cls-1" d="M73.16,99.68H18.33a6.55,6.55,0,0,1-6.54-6.55V56.31a6.55,6.55,0,0,1,6.54-6.55H73.16a6.56,6.56,0,0,1,6.54,6.55V93.13A6.56,6.56,0,0,1,73.16,99.68ZM16.87,55.33V94.11H74.62V55.33Z"/></g></g></svg>