<svg xmlns="http://www.w3.org/2000/svg" viewBox="0 0 91.49 114.73"><defs><style>.cls-1{fill:#254e89;}.cls-2{fill:#fff;}</style></defs><g id="Layer_2" data-name="Layer 2"><g id="content"><path class="cls-1" d="M56.21,20V0H7.65A7.67,7.67,0,0,0,0,7.65v99.44a7.67,7.67,0,0,0,7.65,7.64H83.84a7.67,7.67,0,0,0,7.65-7.64V31.45H67.68A11.48,11.48,0,0,1,56.21,20Z"/><path class="cls-1" d="M67.68,27.63H91.49L60,0V20A7.67,7.67,0,0,0,67.68,27.63Z"/><rect class="cls-2" x="5.61" y="40.44" width="80.26" height="68.57" rx="5"/><path class="cls-2" d="M19.56,16.92c0-1.36-.1-3-.1-4.65h-.05c-.35,1.44-.82,3.05-1.26,4.38l-1.38,4.42h-2l-1.21-4.39c-.37-1.32-.76-2.93-1-4.41h0c-.07,1.53-.12,3.27-.2,4.68l-.21,4.3H9.74l.72-11.32h3.41L15,13.71c.35,1.31.7,2.72.95,4.05H16c.31-1.31.7-2.8,1.07-4.07l1.21-3.76h3.34l.63,11.32H19.73Z"/><path class="cls-2" d="M34.57,15.48c0,3.71-2.26,6-5.57,6s-5.32-2.54-5.32-5.76c0-3.4,2.17-5.93,5.51-5.93S34.57,12.35,34.57,15.48Zm-8.19.15c0,2.21,1,3.78,2.76,3.78s2.72-1.65,2.72-3.85c0-2-1-3.78-2.74-3.78S26.38,13.43,26.38,15.63Z"/><path class="cls-2" d="M38.8,21.25,35.17,9.93H38l1.37,4.79c.39,1.34.74,2.64,1,4h0c.29-1.36.64-2.71,1-4l1.44-4.84H45.6L41.79,21.25Z"/><path class="cls-1" d="M20.5,50.6v50.53H69.81V50.6ZM31.06,98.17H23.88V88h7.18Zm0-16.64H23.88V71.39h7.18Zm0-16.65H23.88V54.74h7.18ZM49,79.35,44,83.12c-2.5,1.91-4.55.9-4.55-2.25v-10c0-3.16,2.05-4.17,4.55-2.25L49,72.38A4.17,4.17,0,0,1,49,79.35ZM64.76,98.17H57.59V88h7.17Zm0-16.64H57.59V71.39h7.17Zm0-16.65H57.59V54.74h7.17Z"/></g></g></svg>