<svg xmlns="http://www.w3.org/2000/svg" viewBox="0 0 91.49 114.73"><defs><style>.cls-1{fill:#f05883;}.cls-2{fill:#fff;}</style></defs><g id="Layer_2" data-name="Layer 2"><g id="content"><path class="cls-1" d="M56.21,20V0H7.65A7.67,7.67,0,0,0,0,7.65v99.44a7.67,7.67,0,0,0,7.65,7.64H83.84a7.67,7.67,0,0,0,7.65-7.64V31.45H67.68A11.48,11.48,0,0,1,56.21,20Z"/><path class="cls-1" d="M67.68,27.63H91.49L60,0V20A7.67,7.67,0,0,0,67.68,27.63Z"/><rect class="cls-2" x="5.61" y="40.44" width="80.26" height="68.57" rx="5"/><path class="cls-1" d="M61.82,68.45,60.35,57.88c-.4-4.47-2-2.64-2-2.64-4.42,3.19-9.79-.31-9.79-.31-11.39-6.28-11.2-.27-11.2-.27L41.48,80l-2-.84a13.89,13.89,0,0,0-2.35-.19c-6.3,0-11.41,4-11.41,9s5.11,9,11.41,9,11.41-4,11.41-9a7.14,7.14,0,0,0-.38-2.26L46.06,72.34c-.73-2.69.06-2.69,2.44-1.7a29,29,0,0,0,9.89,2.2C62.8,73.09,61.82,68.45,61.82,68.45Z"/><path class="cls-2" d="M19.56,16.92c0-1.36-.1-3-.1-4.65h-.05c-.35,1.44-.82,3.05-1.26,4.38l-1.38,4.42h-2l-1.21-4.39c-.37-1.32-.76-2.93-1-4.41h0c-.07,1.53-.12,3.27-.2,4.68l-.21,4.3H9.74l.72-11.32h3.41L15,13.71c.35,1.31.7,2.72.95,4.05H16c.32-1.31.71-2.8,1.08-4.07l1.21-3.76h3.34l.62,11.32h-2.5Z"/><path class="cls-2" d="M24.2,10.08a21.61,21.61,0,0,1,3.46-.23,5.47,5.47,0,0,1,3.46.9,3.35,3.35,0,0,1,1.21,2.63,3.61,3.61,0,0,1-1,2.68,5.22,5.22,0,0,1-3.68,1.2,6.93,6.93,0,0,1-.87-.05v4H24.2Zm2.54,5.14a3.79,3.79,0,0,0,.85.07c1.36,0,2.2-.69,2.2-1.85s-.72-1.66-2-1.66a4.28,4.28,0,0,0-1.05.1Z"/><path class="cls-2" d="M34,18.75a5.92,5.92,0,0,0,2.54.67c1.32,0,2-.63,2-1.46,0-1.07-1.08-1.56-2.21-1.56h-1V14.57h1c.86,0,2-.34,2-1.26,0-.66-.53-1.14-1.61-1.14a4.94,4.94,0,0,0-2.28.65L33.82,11a6.88,6.88,0,0,1,3.38-.82c2.34,0,3.63,1.23,3.63,2.72a2.62,2.62,0,0,1-2,2.54v0A2.72,2.72,0,0,1,41.2,18.1c0,1.93-1.7,3.34-4.47,3.34a6.49,6.49,0,0,1-3.24-.77Z"/></g></g></svg>