<svg xmlns="http://www.w3.org/2000/svg" viewBox="0 0 91.49 114.74"><defs><style>.cls-1,.cls-3{fill:#254e89;}.cls-2{fill:#fff;}.cls-3{fill-rule:evenodd;}</style></defs><g id="Layer_2" data-name="Layer 2"><g id="content"><path class="cls-1" d="M56.21,20V0H7.65A7.67,7.67,0,0,0,0,7.65v99.44a7.68,7.68,0,0,0,7.65,7.65H83.84a7.68,7.68,0,0,0,7.65-7.65V31.45H67.69A11.48,11.48,0,0,1,56.21,20Z"/><path class="cls-1" d="M67.69,27.63h23.8L60,0V20A7.67,7.67,0,0,0,67.69,27.63Z"/><rect class="cls-2" x="5.61" y="40.44" width="80.26" height="68.57" rx="5"/><path class="cls-2" d="M19.56,16.92c0-1.36-.1-3-.1-4.65h-.05c-.35,1.44-.82,3.06-1.26,4.38l-1.38,4.42h-2l-1.21-4.39c-.37-1.32-.76-2.93-1-4.41h0c-.07,1.53-.12,3.27-.2,4.68l-.21,4.3H9.74l.72-11.32h3.41L15,13.71c.35,1.31.7,2.72,1,4.05H16c.31-1.31.7-2.8,1.07-4.07l1.21-3.76h3.34l.62,11.32h-2.5Z"/><path class="cls-2" d="M24.2,10.08a21.61,21.61,0,0,1,3.46-.23,5.45,5.45,0,0,1,3.46.9,3.35,3.35,0,0,1,1.21,2.63,3.62,3.62,0,0,1-1,2.68,5.22,5.22,0,0,1-3.68,1.2,6.93,6.93,0,0,1-.87-.05v4H24.2Zm2.54,5.14a3.79,3.79,0,0,0,.85.07c1.36,0,2.2-.69,2.2-1.85s-.72-1.66-2-1.66a4.28,4.28,0,0,0-1.05.1Z"/><path class="cls-2" d="M38.08,21.25v-2.6H33.24V17l4.13-6.66h3.12v6.41h1.32v1.91H40.49v2.6Zm0-4.51V14.32c0-.66,0-1.33.08-2h-.07c-.35.71-.64,1.35-1,2L35.62,16.7v0Z"/><path class="cls-1" d="M59.27,48H32.22a3.69,3.69,0,0,0-3.69,3.68v46.1a3.68,3.68,0,0,0,3.69,3.68H59.27A3.68,3.68,0,0,0,63,97.77V51.67A3.69,3.69,0,0,0,59.27,48ZM45.74,98.46a3.53,3.53,0,1,1,3.53-3.53A3.53,3.53,0,0,1,45.74,98.46Zm12-9.55H33.7V52.72H57.79Z"/><path class="cls-3" d="M38.32,61.2c0-1.2.78-1.59,1.73-.85l12.41,9.49a1.6,1.6,0,0,1,0,2.66L40.05,82c-.95.73-1.73.34-1.73-.86Z"/></g></g></svg>