<svg xmlns="http://www.w3.org/2000/svg" viewBox="0 0 91.49 114.73"><defs><style>.cls-1{fill:#d64f2a;}.cls-2{fill:#fff;}</style></defs><g id="Layer_2" data-name="Layer 2"><g id="content"><path class="cls-1" d="M56.21,20V0H7.65A7.67,7.67,0,0,0,0,7.65v99.44a7.67,7.67,0,0,0,7.65,7.64H83.84a7.67,7.67,0,0,0,7.65-7.64V31.45H67.68A11.48,11.48,0,0,1,56.21,20Z"/><path class="cls-1" d="M67.68,27.63H91.49L60,0V20A7.67,7.67,0,0,0,67.68,27.63Z"/><rect class="cls-2" x="5.61" y="40.44" width="80.26" height="68.57" rx="5"/><path class="cls-2" d="M10,10.08a21.61,21.61,0,0,1,3.46-.23,5.47,5.47,0,0,1,3.46.9,3.35,3.35,0,0,1,1.21,2.63,3.61,3.61,0,0,1-1,2.68,5.24,5.24,0,0,1-3.68,1.2,7.23,7.23,0,0,1-.88-.05v4H10Zm2.53,5.14a4,4,0,0,0,.86.07c1.36,0,2.2-.69,2.2-1.85s-.72-1.66-2-1.66a4.45,4.45,0,0,0-1.06.1Z"/><path class="cls-2" d="M19.75,10.08a23,23,0,0,1,3.46-.23,7.22,7.22,0,0,1,4.63,1.21,5,5,0,0,1,1.92,4.26,5.75,5.75,0,0,1-1.88,4.59,8.14,8.14,0,0,1-5.23,1.46,21.07,21.07,0,0,1-2.9-.17Zm2.57,9.24a4.75,4.75,0,0,0,.89.05c2.32,0,3.83-1.26,3.83-4a3.25,3.25,0,0,0-3.56-3.6,5.4,5.4,0,0,0-1.16.1Z"/><path class="cls-2" d="M31.44,9.93h6.92V12H34v2.59h4.07V16.7H34v4.55H31.44Z"/><rect class="cls-1" x="13.24" y="48.69" width="65" height="3"/><rect class="cls-1" x="13.24" y="60.95" width="65" height="3"/><rect class="cls-1" x="43.24" y="73.22" width="35" height="3"/><rect class="cls-1" x="43.24" y="85.49" width="35" height="3"/><rect class="cls-1" x="13.24" y="73.22" width="25" height="27.53"/><rect class="cls-1" x="43.24" y="97.75" width="35" height="3"/></g></g></svg>