<svg xmlns="http://www.w3.org/2000/svg" viewBox="0 0 91.49 114.73"><defs><style>.cls-1{fill:#8c94c6;}.cls-2{fill:#fff;}</style></defs><g id="Layer_2" data-name="Layer 2"><g id="content"><path class="cls-1" d="M56.21,20V0H7.65A7.67,7.67,0,0,0,0,7.65v99.43a7.67,7.67,0,0,0,7.65,7.65H83.84a7.67,7.67,0,0,0,7.65-7.65V31.45H67.68A11.49,11.49,0,0,1,56.21,20Z"/><path class="cls-1" d="M67.68,27.63H91.49L60,0V20A7.67,7.67,0,0,0,67.68,27.63Z"/><rect class="cls-2" x="5.61" y="40.44" width="80.26" height="68.57" rx="5"/><path class="cls-2" d="M10,10.08a21.61,21.61,0,0,1,3.46-.23,5.47,5.47,0,0,1,3.46.9,3.34,3.34,0,0,1,1.21,2.62,3.63,3.63,0,0,1-1,2.69,5.23,5.23,0,0,1-3.68,1.19,7.45,7.45,0,0,1-.88,0v4H10Zm2.53,5.14a4,4,0,0,0,.86.07c1.36,0,2.2-.69,2.2-1.85s-.72-1.66-2-1.66a4.45,4.45,0,0,0-1.06.1Z"/><path class="cls-2" d="M19.75,21.25V9.93h3l2.35,4.15A33.66,33.66,0,0,1,26.94,18h0a41.43,41.43,0,0,1-.22-4.72V9.93h2.35V21.25H26.43L24,16.89a42.38,42.38,0,0,1-2-4H22c.07,1.5.1,3.1.1,4.94v3.41Z"/><path class="cls-2" d="M40.8,20.73a12.66,12.66,0,0,1-3.78.64,6.33,6.33,0,0,1-4.61-1.53,5.45,5.45,0,0,1-1.59-4.11c0-3.77,2.75-5.92,6.47-5.92a7.78,7.78,0,0,1,3.14.56l-.54,2.05a6.23,6.23,0,0,0-2.64-.49,3.42,3.42,0,0,0-3.74,3.66,3.7,3.7,0,0,0,4.82,3.55V16.77H36.58v-2H40.8Z"/><rect class="cls-1" x="11.12" y="50.71" width="9.89" height="9.89"/><rect class="cls-1" x="21.02" y="60.6" width="9.89" height="9.89"/><rect class="cls-1" x="30.91" y="50.71" width="9.89" height="9.89"/><rect class="cls-1" x="40.8" y="60.6" width="9.89" height="9.89"/><rect class="cls-1" x="50.69" y="50.71" width="9.89" height="9.89"/><rect class="cls-1" x="60.58" y="60.6" width="9.89" height="9.89"/><rect class="cls-1" x="11.12" y="70.49" width="9.89" height="9.89"/><rect class="cls-1" x="21.02" y="80.38" width="9.89" height="9.89"/><rect class="cls-1" x="30.91" y="70.49" width="9.89" height="9.89"/><rect class="cls-1" x="40.8" y="80.38" width="9.89" height="9.89"/><rect class="cls-1" x="50.69" y="70.49" width="9.89" height="9.89"/><rect class="cls-1" x="11.12" y="90.28" width="9.89" height="9.89"/><rect class="cls-1" x="70.47" y="50.71" width="9.89" height="9.89"/><rect class="cls-1" x="70.47" y="70.49" width="9.89" height="9.89"/><rect class="cls-1" x="70.47" y="90.28" width="9.89" height="9.89"/><rect class="cls-1" x="30.91" y="90.28" width="9.89" height="9.89"/><rect class="cls-1" x="50.69" y="90.28" width="9.89" height="9.89"/><rect class="cls-1" x="60.58" y="80.38" width="9.89" height="9.89"/></g></g></svg>