<svg xmlns="http://www.w3.org/2000/svg" viewBox="0 0 91.49 114.73"><defs><style>.cls-1{fill:#f8981d;}.cls-2{fill:#fff;}</style></defs><g id="Layer_2" data-name="Layer 2"><g id="content"><path class="cls-1" d="M56.21,20V0H7.65A7.67,7.67,0,0,0,0,7.65v99.44a7.67,7.67,0,0,0,7.65,7.64H83.84a7.67,7.67,0,0,0,7.65-7.64V31.45H67.68A11.48,11.48,0,0,1,56.21,20Z"/><path class="cls-1" d="M67.68,27.63H91.49L60,0V20A7.67,7.67,0,0,0,67.68,27.63Z"/><rect class="cls-2" x="5.61" y="40.44" width="80.26" height="68.57" rx="5"/><path class="cls-2" d="M10,10.08a21.61,21.61,0,0,1,3.46-.23,5.47,5.47,0,0,1,3.46.9,3.35,3.35,0,0,1,1.21,2.63,3.61,3.61,0,0,1-1,2.68,5.24,5.24,0,0,1-3.68,1.2,7.23,7.23,0,0,1-.88-.05v4H10Zm2.53,5.14a4,4,0,0,0,.86.07c1.36,0,2.2-.69,2.2-1.85s-.72-1.66-2-1.66a4.45,4.45,0,0,0-1.06.1Z"/><path class="cls-2" d="M19.75,10.08a21.61,21.61,0,0,1,3.46-.23,5.47,5.47,0,0,1,3.46.9,3.35,3.35,0,0,1,1.21,2.63,3.61,3.61,0,0,1-1,2.68,5.24,5.24,0,0,1-3.68,1.2,7.23,7.23,0,0,1-.88-.05v4H19.75Zm2.53,5.14a4,4,0,0,0,.86.07c1.36,0,2.2-.69,2.2-1.85s-.72-1.66-2-1.66a4.45,4.45,0,0,0-1.06.1Z"/><path class="cls-2" d="M31.69,12.08h-3V9.93h8.7v2.15H34.26v9.17H31.69Z"/><path class="cls-1" d="M45.74,47.72A27,27,0,0,0,21.45,62.94L45.29,73.05,63.74,54.6A26.88,26.88,0,0,0,45.74,47.72ZM44.6,69.5l-18.88-8a24.8,24.8,0,0,1,3.05-3.74,24,24,0,0,1,30.46-2.88Z"/><path class="cls-1" d="M27.74,94.84A27,27,0,0,0,65.87,56.72Z"/><path class="cls-1" d="M43,75.34,20.29,65.7a27,27,0,0,0,5.33,27Z"/></g></g></svg>