<svg xmlns="http://www.w3.org/2000/svg" viewBox="0 0 91.49 114.73"><defs><style>.cls-1{fill:#5a74b8;}.cls-2{fill:#fff;}</style></defs><g id="Layer_2" data-name="Layer 2"><g id="content"><path class="cls-1" d="M56.21,20V0H7.65A7.67,7.67,0,0,0,0,7.65v99.44a7.67,7.67,0,0,0,7.65,7.64H83.84a7.67,7.67,0,0,0,7.65-7.64V31.45H67.68A11.48,11.48,0,0,1,56.21,20Z"/><path class="cls-1" d="M67.68,27.63H91.49L60,0V20A7.67,7.67,0,0,0,67.68,27.63Z"/><rect class="cls-2" x="5.61" y="40.44" width="80.26" height="68.57" rx="5"/><path class="cls-2" d="M10,10.08a21.61,21.61,0,0,1,3.46-.23,5.47,5.47,0,0,1,3.46.9,3.35,3.35,0,0,1,1.21,2.63,3.61,3.61,0,0,1-1,2.68,5.24,5.24,0,0,1-3.68,1.2,7.23,7.23,0,0,1-.88-.05v4H10Zm2.53,5.14a4,4,0,0,0,.86.07c1.36,0,2.2-.69,2.2-1.85s-.72-1.66-2-1.66a4.45,4.45,0,0,0-1.06.1Z"/><path class="cls-2" d="M19.83,18.62a6.59,6.59,0,0,0,2.84.7c1.18,0,1.8-.48,1.8-1.22s-.54-1.11-1.9-1.6c-1.88-.65-3.11-1.7-3.11-3.34,0-1.93,1.61-3.41,4.29-3.41a7,7,0,0,1,2.88.57l-.57,2.06a5.51,5.51,0,0,0-2.37-.53c-1.1,0-1.64.5-1.64,1.09s.64,1,2.1,1.59c2,.74,2.94,1.79,2.94,3.38,0,1.9-1.46,3.51-4.57,3.51a7.33,7.33,0,0,1-3.21-.69Z"/><path class="cls-2" d="M28.82,10.08a23.09,23.09,0,0,1,3.46-.23,7.27,7.27,0,0,1,4.64,1.21,5,5,0,0,1,1.91,4.26A5.75,5.75,0,0,1,37,19.91a8.14,8.14,0,0,1-5.23,1.46,21.07,21.07,0,0,1-2.9-.17Zm2.57,9.24a4.75,4.75,0,0,0,.89.05c2.32,0,3.83-1.26,3.83-4a3.25,3.25,0,0,0-3.56-3.6,5.4,5.4,0,0,0-1.16.1Z"/><path class="cls-1" d="M56.63,82.68a34.27,34.27,0,0,1,5.54-.37c2.52,0,4.32.48,5.53,1.45A5.28,5.28,0,0,1,69.64,88,5.8,5.8,0,0,1,68,92.26a8.44,8.44,0,0,1-5.89,1.9,9.3,9.3,0,0,1-1.39-.08v6.48H56.63Zm4.06,8.23a6.28,6.28,0,0,0,1.37.11c2.18,0,3.52-1.1,3.52-3,0-1.67-1.16-2.66-3.2-2.66a7,7,0,0,0-1.69.16Z"/><path class="cls-1" d="M71.52,97A8.06,8.06,0,0,0,75,98c1.24,0,1.75-.43,1.75-1.1s-.4-1-1.93-1.51c-2.72-.91-3.77-2.39-3.74-4,0-2.44,2.1-4.3,5.35-4.3a8.9,8.9,0,0,1,3.71.75l-.73,2.83a6.34,6.34,0,0,0-2.85-.76c-1,0-1.56.41-1.56,1.08s.51.94,2.13,1.5c2.5.86,3.55,2.13,3.57,4.06,0,2.45-1.93,4.25-5.7,4.25a9.23,9.23,0,0,1-4.24-.91Z"/><path class="cls-1" d="M33.73,83.44c-1.12.45-9.82,4.3-15.19,17.58,0,0,3.13-3,6.28-3.63l-1.11,1.43a42.7,42.7,0,0,1,4.79-.66c.81.06,9,.9,11-5.89a14.78,14.78,0,0,0-.31-4C36.63,87.93,34,85.84,33.73,83.44Z"/><path class="cls-1" d="M35.49,87.55A4.55,4.55,0,0,0,33.74,86c-.38-.18-.15,0-.57-.05,0,0-2.76,1.77-2.79,1.76-.58-.09.89-2.19.27-2.09a3.64,3.64,0,0,1-.8,0c-3.29,2.4-8,7-11.31,15.32,0,0,3.13-3,6.28-3.63l-1.11,1.43a42.7,42.7,0,0,1,4.79-.66c.13,0,.45,0,.9.06a2.16,2.16,0,0,1,.3-.18c3.05-1.63,6.93-3.24,7.05-7.26a17,17,0,0,0-.08-2.3A2.67,2.67,0,0,1,35.49,87.55Z"/><path class="cls-1" d="M69.26,45.18,40.72,74.92a2.34,2.34,0,0,1,.54,1.66c0,.14,0,.28,0,.41l.17.14a9.5,9.5,0,0,0,5.27,2.32l.68.1.14-.19L72.13,46.61A4.66,4.66,0,0,0,71.92,45C70.05,43.2,69.26,45.18,69.26,45.18Z"/><path class="cls-1" d="M69.26,45.18,62.52,52c.59.07,1.06.81.67,2-1.27,3.91-2.43,4.66-5,7.9-2.9,3.68-8.62,11.65-11.87,15-.48.49-1,1-1.43,1.48v0c-.19.21-.37.43-.56.65.85.18,1.94.32,2.94.6l.22-.29L72.13,46.61A4.66,4.66,0,0,0,71.92,45C70.05,43.2,69.26,45.18,69.26,45.18Z"/><path class="cls-1" d="M41.24,87.89C47.5,80,53.15,72.35,59.33,64.43,65.65,56.34,65.9,55.35,72,47.07c.25-.34-.22-.78-.5-.45C64.84,54.45,65,55.73,58.66,63.84,52.49,71.79,45,80,39.19,88.22c-.15.21,1.48.21,1.64,0Z"/><path class="cls-1" d="M34,84.2C40.75,76.78,47.58,68,54.65,60.93c7.29-7.31,8.43-7.62,15-15.61a.34.34,0,0,0-.5-.45c-6.93,7.34-7.51,7.74-14.6,14.91S40.1,74.41,33.62,82.37c-.18.22.14.53.33.31Z"/><path class="cls-1" d="M41.38,87.49c-.89.35-1.13.16-2.12,0A5.85,5.85,0,0,1,36.37,86a5.63,5.63,0,0,1-1.74-2.65,2.05,2.05,0,0,1,.68-2.5c.17-.19.13-.71-.08-.52-3.2,3-2,4.47-.34,6.22,1.26,1.36,5.3,3.57,6.6,1.06,0-.07,0-.18-.11-.14Z"/><path class="cls-1" d="M71.6,47.57a2.05,2.05,0,0,0,.76-1.76,2.21,2.21,0,0,0-.74-1.57,1.57,1.57,0,0,0-1.58-.3A1.65,1.65,0,0,0,69,45.56c0,.16.22.33.38.2.37-.31.52-.78.93-1a.88.88,0,0,1,.92.11,1.47,1.47,0,0,1,.57,1c.09.59-.23,1-.35,1.57a.14.14,0,0,0,.2.15Z"/><path class="cls-1" d="M47.84,79a6.22,6.22,0,0,1-4.4-.87c-1.6-.87-2.5-2-1.83-3.81.09-.25-.17-.47-.38-.27-3.17,2.93,4.16,6.5,6.69,5.13.1-.05,0-.21-.08-.18Z"/><path class="cls-1" d="M39.19,88.51c.41,4.06-.94,7.2-4.95,8.59-3.71,1.3-6.92-.1-10.54,1.39a2.77,2.77,0,0,1-.47.7.26.26,0,0,0,.22,0c4.72-1.31,8.93.2,13.31-2.42,3-1.77,3.62-5.25,2.66-8.34C39.38,88.34,39.17,88.37,39.19,88.51Z"/><path class="cls-1" d="M25,97a1.19,1.19,0,0,1-.22.08,12.84,12.84,0,0,0-1.53,2c-.06.11.08.23.17.14.79-.8,1.49-1.67,2.28-2.47A4.54,4.54,0,0,0,25,97Z"/><path class="cls-1" d="M18.39,101.2c3-2.53,6.38-3.79,10.08-5,.26-.09.13-.45-.13-.41a19.37,19.37,0,0,0-10.08,5.25c-.09.08,0,.2.13.12Z"/><path class="cls-1" d="M18.54,101a104.83,104.83,0,0,1,6.1-9.54,29.63,29.63,0,0,1,9.17-7.68c.33-.19.06-.7-.29-.59C26.31,85.6,21,94.32,18.44,101c0,.06.07.09.1,0Z"/><path class="cls-1" d="M37.94,88.18a11.86,11.86,0,0,1-3.88,6.68c-.1.07,0,.22.09.16a10.19,10.19,0,0,0,4.17-6.67Z"/><path class="cls-1" d="M34.42,85.44c-4,1.61-7.1,5-9.93,8.37,0,.06,0,.13.08.08,3.16-3.42,6.23-6.31,10.3-8A5.11,5.11,0,0,1,34.42,85.44Z"/></g></g></svg>