<svg xmlns="http://www.w3.org/2000/svg" viewBox="0 0 91.49 114.73"><defs><style>.cls-1{fill:#885da7;}.cls-2{fill:#fff;}</style></defs><g id="Layer_2" data-name="Layer 2"><g id="content"><path class="cls-1" d="M56.21,20V0H7.65A7.67,7.67,0,0,0,0,7.65v99.44a7.67,7.67,0,0,0,7.65,7.64H83.84a7.67,7.67,0,0,0,7.65-7.64V31.45H67.68A11.48,11.48,0,0,1,56.21,20Z"/><path class="cls-1" d="M67.68,27.63H91.49L60,0V20A7.67,7.67,0,0,0,67.68,27.63Z"/><rect class="cls-2" x="5.61" y="40.44" width="80.26" height="68.57" rx="5"/><path class="cls-2" d="M10,10.08a23.16,23.16,0,0,1,3.41-.23,5.77,5.77,0,0,1,3.66.89,2.89,2.89,0,0,1,1,2.37,3,3,0,0,1-2,2.79v0a2.83,2.83,0,0,1,1.51,2.11c.36,1.28.71,2.76.93,3.19H15.92a13,13,0,0,1-.79-2.63c-.3-1.41-.79-1.8-1.83-1.82h-.78v4.45H10ZM12.52,15h1c1.28,0,2-.63,2-1.62s-.7-1.57-1.88-1.58a7,7,0,0,0-1.16.08Z"/><path class="cls-2" d="M22.74,18.35l-.81,2.9H19.28L22.74,9.93H26.1l3.51,11.32H26.85L26,18.35Zm2.87-1.92L24.9,14c-.2-.67-.4-1.51-.57-2.18h0c-.17.67-.34,1.53-.52,2.18l-.67,2.4Z"/><path class="cls-2" d="M31.12,10.08a23.16,23.16,0,0,1,3.41-.23,5.75,5.75,0,0,1,3.66.89,2.89,2.89,0,0,1,1,2.37,3,3,0,0,1-2,2.79v0a2.86,2.86,0,0,1,1.52,2.11,32,32,0,0,0,.92,3.19H37.05a14.61,14.61,0,0,1-.79-2.63c-.3-1.41-.79-1.8-1.83-1.82h-.77v4.45H31.12ZM33.66,15h1c1.28,0,2-.63,2-1.62s-.71-1.57-1.88-1.58a6.8,6.8,0,0,0-1.16.08Z"/><polygon class="cls-1" points="25.91 52.96 28.12 52.96 28.12 49.96 15.41 49.96 15.41 64.06 25.91 64.06 25.91 52.96"/><polygon class="cls-1" points="43.62 49.96 43.62 52.96 46.41 52.96 46.41 64.06 76.08 64.06 76.08 49.96 43.62 49.96"/><polygon class="cls-1" points="28.82 56.16 28.82 72.31 34.43 72.31 34.43 64.24 37.87 64.24 37.87 72.31 43.5 72.31 43.5 56.16 28.82 56.16"/><polygon class="cls-1" points="28.12 75.52 25.91 75.52 25.91 67.58 15.41 67.58 15.41 81.67 28.12 81.67 28.12 75.52"/><polygon class="cls-1" points="46.41 67.58 46.41 75.52 43.62 75.52 43.62 81.67 76.08 81.67 76.08 67.58 46.41 67.58"/><rect class="cls-1" x="15.41" y="85.2" width="12.71" height="14.09"/><rect class="cls-1" x="43.62" y="85.2" width="32.46" height="14.09"/><path class="cls-1" d="M30.74,75.52v26.32h10.2V75.52Zm5.1,15.27a2,2,0,1,1,2-2A2,2,0,0,1,35.84,90.79Zm0-7.5a2,2,0,1,1,2-2A2,2,0,0,1,35.84,83.29Z"/><rect class="cls-1" x="30.74" y="47.6" width="10.21" height="5.36"/></g></g></svg>