<svg xmlns="http://www.w3.org/2000/svg" viewBox="0 0 91.49 114.73"><defs><style>.cls-1{fill:#facc17;}.cls-2{fill:#fff;}</style></defs><g id="Layer_2" data-name="Layer 2"><g id="content"><path class="cls-1" d="M56.21,20V0H7.65A7.67,7.67,0,0,0,0,7.65v99.44a7.67,7.67,0,0,0,7.65,7.64H83.84a7.67,7.67,0,0,0,7.65-7.64V31.45H67.68A11.49,11.49,0,0,1,56.21,20Z"/><path class="cls-1" d="M67.68,27.63H91.49L60,0V20A7.67,7.67,0,0,0,67.68,27.63Z"/><rect class="cls-2" x="5.61" y="40.44" width="80.26" height="68.57" rx="5"/><path class="cls-2" d="M10,10.08a23.16,23.16,0,0,1,3.41-.23,5.77,5.77,0,0,1,3.66.89,2.86,2.86,0,0,1,1,2.37,3,3,0,0,1-2,2.78V16a2.81,2.81,0,0,1,1.51,2.11c.36,1.28.71,2.76.93,3.19H15.92a13.28,13.28,0,0,1-.79-2.63c-.3-1.41-.79-1.8-1.83-1.82h-.78v4.45H10ZM12.52,15h1c1.28,0,2-.63,2-1.63s-.71-1.56-1.89-1.57a7,7,0,0,0-1.16.08Z"/><path class="cls-2" d="M22.74,18.35l-.81,2.9H19.28L22.74,9.93H26.1l3.51,11.32H26.85L26,18.35Zm2.87-1.92-.7-2.4c-.21-.67-.41-1.51-.58-2.18h0c-.17.67-.34,1.52-.52,2.18l-.67,2.4Z"/><path class="cls-2" d="M32,21.25,29.27,9.93H32l.86,4.67c.25,1.35.48,2.81.67,4h0c.19-1.23.46-2.59.74-4l1-4.64H38l.91,4.77c.25,1.33.43,2.54.6,3.8h0c.17-1.26.42-2.59.65-3.93l.93-4.64h2.6L40.8,21.25H38l-1-4.87c-.22-1.14-.4-2.2-.54-3.49h0c-.21,1.28-.39,2.35-.66,3.49l-1.07,4.87Z"/><path class="cls-1" d="M45.75,72a8.52,8.52,0,1,0,8.51,8.51A8.52,8.52,0,0,0,45.75,72Z"/><path class="cls-1" d="M66.45,61.48H58.84V58.8a6.1,6.1,0,0,0-6.08-6.08h-14a6.1,6.1,0,0,0-6.08,6.08v2.68H25A6.1,6.1,0,0,0,19,67.56V90.64A6.1,6.1,0,0,0,25,96.72H66.45a6.09,6.09,0,0,0,6.07-6.08V67.56A6.09,6.09,0,0,0,66.45,61.48ZM24.58,70.73V66.31h8v4.42ZM45.75,93.42A12.92,12.92,0,1,1,58.66,80.5,12.93,12.93,0,0,1,45.75,93.42Z"/></g></g></svg>