<svg xmlns="http://www.w3.org/2000/svg" viewBox="0 0 91.49 114.73"><defs><style>.cls-1{fill:#885da7;}.cls-2{fill:#fff;}</style></defs><g id="Layer_2" data-name="Layer 2"><g id="content"><path class="cls-1" d="M56.21,20V0H7.65A7.67,7.67,0,0,0,0,7.65v99.44a7.67,7.67,0,0,0,7.65,7.64H83.84a7.67,7.67,0,0,0,7.65-7.64V31.45H67.68A11.48,11.48,0,0,1,56.21,20Z"/><path class="cls-1" d="M67.68,27.63H91.49L60,0V20A7.67,7.67,0,0,0,67.68,27.63Z"/><rect class="cls-2" x="5.61" y="40.44" width="80.26" height="68.57" rx="5"/><path class="cls-2" d="M12.17,12.08h-3V9.93h8.7v2.15H14.74v9.17H12.17Z"/><path class="cls-2" d="M25.46,21.25l-1-2c-.42-.79-.68-1.38-1-2h0c-.23.66-.52,1.25-.87,2l-.94,2H18.66l3.27-5.72-3.16-5.6h2.94l1,2.07c.34.69.59,1.24.86,1.88h0c.27-.72.49-1.23.78-1.88l.95-2.07h2.93l-3.19,5.53,3.36,5.79Z"/><path class="cls-2" d="M32.08,12.08H29V9.93h8.7v2.15H34.65v9.17H32.08Z"/><rect class="cls-1" x="13.24" y="48.69" width="65" height="3"/><rect class="cls-1" x="13.24" y="60.95" width="65" height="3"/><rect class="cls-1" x="13.24" y="73.22" width="65" height="3"/><rect class="cls-1" x="13.24" y="85.49" width="46" height="3"/><rect class="cls-1" x="13.24" y="97.75" width="46" height="3"/><path class="cls-1" d="M69.12,85.88H64.26V82.44H78.18v3.44H73.24v14.68H69.12Z"/></g></g></svg>