<svg xmlns="http://www.w3.org/2000/svg" viewBox="0 0 91.49 114.74"><defs><style>.cls-1,.cls-3{fill:#f05883;}.cls-2{fill:#fff;}.cls-3{fill-rule:evenodd;}</style></defs><g id="Layer_2" data-name="Layer 2"><g id="content"><path class="cls-1" d="M56.21,20V0H7.65A7.67,7.67,0,0,0,0,7.65v99.44a7.68,7.68,0,0,0,7.65,7.65H83.84a7.68,7.68,0,0,0,7.65-7.65V31.45H67.68A11.48,11.48,0,0,1,56.21,20Z"/><path class="cls-1" d="M67.68,27.63H91.49L60,0V20A7.67,7.67,0,0,0,67.68,27.63Z"/><rect class="cls-2" x="5.61" y="40.44" width="80.26" height="68.57" rx="5"/><path class="cls-3" d="M37.88,61.49c0-1.6,1-2.11,2.31-1.14L56.66,73a2.12,2.12,0,0,1,0,3.54L40.19,89.09c-1.27,1-2.31.46-2.31-1.14Z"/><path class="cls-1" d="M45.74,102A27.23,27.23,0,1,1,73,74.72,27.26,27.26,0,0,1,45.74,102Zm0-49.46A22.23,22.23,0,1,0,68,74.72,22.25,22.25,0,0,0,45.74,52.49Z"/></g></g></svg>