<svg xmlns="http://www.w3.org/2000/svg" viewBox="0 0 91.49 114.73"><defs><style>.cls-1{fill:#254e89;}.cls-2{fill:#fff;}</style></defs><g id="Layer_2" data-name="Layer 2"><g id="content"><path class="cls-1" d="M56.21,20V0H7.65A7.67,7.67,0,0,0,0,7.65v99.44a7.67,7.67,0,0,0,7.65,7.64H83.84a7.67,7.67,0,0,0,7.65-7.64V31.45H67.68A11.48,11.48,0,0,1,56.21,20Z"/><path class="cls-1" d="M67.68,27.63H91.49L60,0V20A7.67,7.67,0,0,0,67.68,27.63Z"/><rect class="cls-2" x="5.61" y="40.44" width="80.26" height="68.57" rx="5"/><path class="cls-1" d="M37.84,71.63c1.67-2.59,4.59-6.32,7.9-6.32S52,69,53.65,71.63l15.74-5a25,25,0,0,0-47.29,0Z"/><path class="cls-1" d="M53.65,77.81c-1.67,2.6-4.59,6.32-7.91,6.32s-6.23-3.72-7.9-6.32l-15.74,5a25,25,0,0,0,47.29,0Z"/><path class="cls-1" d="M50,74.72a4.24,4.24,0,1,1-4.24-4.23A4.23,4.23,0,0,1,50,74.72Z"/><path class="cls-1" d="M45.74,49.72a25,25,0,1,0,25,25A25,25,0,0,0,45.74,49.72Zm0,46a21,21,0,1,1,21-21A21,21,0,0,1,45.74,95.72Z"/><path class="cls-1" d="M45.74,64.77a10,10,0,1,0,9.95,10A9.95,9.95,0,0,0,45.74,64.77Zm0,17.9a8,8,0,1,1,7.95-8A8,8,0,0,1,45.74,82.67Z"/><path class="cls-2" d="M12.66,21.25,9,9.93h2.81l1.37,4.79c.39,1.34.74,2.64,1,4h0c.29-1.36.64-2.71,1-4l1.44-4.84h2.72L15.65,21.25Z"/><path class="cls-2" d="M30.9,15.48c0,3.71-2.25,6-5.56,6S20,18.9,20,15.68c0-3.4,2.16-5.93,5.51-5.93S30.9,12.35,30.9,15.48Zm-8.18.15c0,2.21,1,3.78,2.76,3.78s2.72-1.65,2.72-3.85c0-2-1-3.78-2.74-3.78S22.72,13.43,22.72,15.63Z"/><path class="cls-2" d="M32.58,10.08a21,21,0,0,1,3.31-.23,6.21,6.21,0,0,1,3.34.64A2.47,2.47,0,0,1,40.6,12.7a2.56,2.56,0,0,1-1.87,2.42v0A2.83,2.83,0,0,1,41,18a3,3,0,0,1-1.17,2.4c-.83.65-2.2,1-4.46,1a18.8,18.8,0,0,1-2.77-.17Zm2.54,4.34H36c1.34,0,2.06-.56,2.06-1.4s-.65-1.31-1.81-1.31a7.4,7.4,0,0,0-1.09.07Zm0,5a9,9,0,0,0,1,0c1.16,0,2.18-.43,2.18-1.63s-1-1.59-2.3-1.59h-.87Z"/></g></g></svg>