<svg xmlns="http://www.w3.org/2000/svg" viewBox="0 0 91.49 114.73"><defs><style>.cls-1{fill:#885da7;}.cls-2{fill:#fff;}</style></defs><g id="Layer_2" data-name="Layer 2"><g id="content"><path class="cls-1" d="M56.21,20V0H7.65A7.67,7.67,0,0,0,0,7.65v99.44a7.67,7.67,0,0,0,7.65,7.64H83.84a7.67,7.67,0,0,0,7.65-7.64V31.45H67.68A11.48,11.48,0,0,1,56.21,20Z"/><path class="cls-1" d="M67.68,27.63H91.49L60,0V20A7.67,7.67,0,0,0,67.68,27.63Z"/><rect class="cls-2" x="5.61" y="40.44" width="80.26" height="68.57" rx="5"/><polygon class="cls-1" points="35.59 103.62 25.01 77.84 14.65 77.84 14.65 72.98 28.27 72.98 34.03 87.01 42.48 45.82 51.39 74.17 56.79 60.33 64.81 72.98 76.84 72.98 76.84 77.84 62.13 77.84 57.82 71.04 50.89 88.81 43.47 65.19 35.59 103.62"/><path class="cls-2" d="M11.82,21.25,9.13,9.93h2.74l.86,4.67c.25,1.35.48,2.81.67,4h0c.19-1.23.46-2.59.74-4l1-4.64h2.72l.91,4.77c.25,1.33.43,2.54.6,3.8h0c.16-1.26.42-2.59.65-3.93L21,9.93h2.6L20.66,21.25H17.88l-.95-4.87c-.22-1.14-.41-2.2-.54-3.49h0c-.2,1.28-.38,2.35-.65,3.49l-1.08,4.87Z"/><path class="cls-2" d="M26.64,18.35l-.81,2.9H23.17L26.64,9.93H30l3.51,11.32H30.75l-.87-2.9Zm2.87-1.92L28.8,14c-.2-.67-.4-1.51-.57-2.18h0c-.17.67-.34,1.53-.52,2.18L27,16.43Z"/><path class="cls-2" d="M36.7,21.25,33.07,9.93h2.81l1.37,4.79c.39,1.34.74,2.64,1,4h.05c.29-1.36.64-2.71,1-4l1.44-4.84H43.5L39.69,21.25Z"/></g></g></svg>