<svg xmlns="http://www.w3.org/2000/svg" viewBox="0 0 91.49 114.73"><defs><style>.cls-1{fill:#87c540;}.cls-2{fill:#fff;}</style></defs><g id="Layer_2" data-name="Layer 2"><g id="content"><path class="cls-1" d="M56.21,20V0H7.65A7.67,7.67,0,0,0,0,7.65v99.44a7.67,7.67,0,0,0,7.65,7.64H83.84a7.67,7.67,0,0,0,7.65-7.64V31.45H67.68A11.48,11.48,0,0,1,56.21,20Z"/><path class="cls-1" d="M67.68,27.63H91.49L60,0V20A7.67,7.67,0,0,0,67.68,27.63Z"/><rect class="cls-2" x="5.61" y="40.44" width="80.26" height="68.57" rx="5"/><path class="cls-2" d="M16,21.25l-1-2c-.42-.79-.69-1.38-1-2h0c-.23.66-.52,1.25-.87,2l-.94,2H9.15l3.27-5.72L9.26,9.93H12.2l1,2.07c.33.69.58,1.24.85,1.88h0c.26-.72.48-1.23.77-1.88l1-2.07h2.92l-3.19,5.53,3.36,5.79Z"/><path class="cls-2" d="M20.29,9.93h2.57V19.1h4.5v2.15H20.29Z"/><path class="cls-2" d="M29,18.62a6.59,6.59,0,0,0,2.84.7c1.18,0,1.8-.48,1.8-1.22s-.54-1.11-1.9-1.6c-1.88-.65-3.11-1.7-3.11-3.34,0-1.93,1.62-3.41,4.29-3.41a7,7,0,0,1,2.89.57l-.57,2.06a5.55,5.55,0,0,0-2.37-.53c-1.11,0-1.65.5-1.65,1.09s.64,1,2.1,1.59c2,.74,2.94,1.79,2.94,3.38,0,1.9-1.46,3.51-4.57,3.51a7.33,7.33,0,0,1-3.21-.69Z"/><rect class="cls-1" x="19.68" y="80.49" width="12.82" height="20.14"/><rect class="cls-1" x="37.99" y="71.34" width="12.82" height="29.3"/><rect class="cls-1" x="57.21" y="62.18" width="12.82" height="38.45"/><polygon class="cls-1" points="25.76 76.36 21.81 72.55 35.99 57.83 43.59 63.53 55.35 51.98 59.2 55.89 44.07 70.75 36.58 65.13 25.76 76.36"/><polygon class="cls-1" points="50.8 50.65 60.81 50.63 60.81 60.3 50.8 50.65"/></g></g></svg>