<svg xmlns="http://www.w3.org/2000/svg" viewBox="0 0 91.49 114.74"><defs><style>.cls-1{fill:#facc17;}.cls-2{fill:#fff;}</style></defs><g id="Layer_2" data-name="Layer 2"><g id="content"><path class="cls-1" d="M56.21,20V0H7.65A7.67,7.67,0,0,0,0,7.65v99.44a7.68,7.68,0,0,0,7.65,7.65H83.84a7.68,7.68,0,0,0,7.65-7.65V31.45H67.68A11.48,11.48,0,0,1,56.21,20Z"/><path class="cls-1" d="M67.68,27.63H91.49L60,0V20A7.67,7.67,0,0,0,67.68,27.63Z"/><rect class="cls-2" x="5.61" y="40.44" width="80.26" height="68.57" rx="5"/><path class="cls-2" d="M9.26,19.88l5.4-7.76v-.07H9.77V9.93H18v1.48l-5.27,7.66v.07h5.36v2.11H9.26Z"/><path class="cls-2" d="M22.25,9.93V21.25H19.68V9.93Z"/><path class="cls-2" d="M24.47,10.08a21.61,21.61,0,0,1,3.46-.23,5.47,5.47,0,0,1,3.46.9,3.35,3.35,0,0,1,1.21,2.63,3.62,3.62,0,0,1-1,2.68,5.24,5.24,0,0,1-3.68,1.2,7.23,7.23,0,0,1-.88-.05v4H24.47ZM27,15.22a4,4,0,0,0,.86.07c1.36,0,2.2-.69,2.2-1.85s-.72-1.66-2-1.66a4.45,4.45,0,0,0-1.06.1Z"/><rect class="cls-1" x="39.45" y="45.25" width="4.88" height="3.52"/><rect class="cls-1" x="47.47" y="48.77" width="4.88" height="3.52"/><rect class="cls-1" x="39.45" y="52.3" width="4.88" height="3.52"/><rect class="cls-1" x="47.47" y="55.82" width="4.88" height="3.52"/><rect class="cls-1" x="39.45" y="59.35" width="4.88" height="3.52"/><rect class="cls-1" x="47.47" y="62.87" width="4.88" height="3.52"/><rect class="cls-1" x="39.45" y="66.39" width="4.88" height="3.52"/><rect class="cls-1" x="47.47" y="69.92" width="4.88" height="3.52"/><rect class="cls-1" x="44.33" y="45.25" width="3.25" height="30.44"/><polygon class="cls-1" points="50.53 79.91 41.38 79.91 39.56 73.44 52.35 73.44 50.53 79.91"/><polygon class="cls-1" points="50.11 82.95 41.81 82.95 38.86 100.33 42.76 105.37 49.65 105.37 53.05 100.33 50.11 82.95"/><circle class="cls-2" cx="45.96" cy="99.6" r="2.37"/><rect class="cls-1" x="40.09" y="82.49" width="11.74" height="4.25"/></g></g></svg>